{
    "asset" : {
        "generator" : "Khronos glTF Blender I/O v3.3.27",
        "version" : "2.0"
    },
    "extensionsUsed" : [
        "KHR_materials_unlit"
    ],
    "scene" : 0,
    "scenes" : [
        {
            "name" : "Scene",
            "nodes" : [
                16
            ]
        }
    ],
    "nodes" : [
        {
            "name" : "Object_6",
            "rotation" : [
                1,
                0,
                0,
                2.1855694143368964e-08
            ]
        },
        {
            "name" : "Bone002_01",
            "rotation" : [
                -0.7071066498756409,
                -1.1298980240326273e-07,
                -1.1298965318928822e-07,
                0.70710688829422
            ],
            "translation" : [
                -1.1920936060505483e-07,
                0.6085053086280823,
                -4.1620177171353134e-07
            ]
        },
        {
            "mesh" : 1,
            "name" : "TreasureCoins_TreasureCoins_0"
        },
        {
            "children" : [
                2
            ],
            "name" : "TreasureCoins",
            "rotation" : [
                1.2526217005870421e-06,
                -0.7156960368156433,
                -0.6984119415283203,
                2.996543102540272e-08
            ],
            "scale" : [
                1.0000001192092896,
                1.0000001192092896,
                1.000000238418579
            ],
            "translation" : [
                7.035221187834395e-07,
                -0.01052462961524725,
                -0.5198495984077454
            ]
        },
        {
            "children" : [
                1,
                3
            ],
            "name" : "Bone001_00",
            "rotation" : [
                1.1298975266527123e-07,
                -0.7071067094802856,
                -0.7071068286895752,
                5.3385068810030134e-08
            ],
            "scale" : [
                1,
                0.9999997019767761,
                0.9999998807907104
            ],
            "translation" : [
                6.556510925292969e-07,
                0.5177116990089417,
                0.010524667799472809
            ]
        },
        {
            "children" : [
                4
            ],
            "name" : "_rootJoint",
            "rotation" : [
                -0.7071068286895752,
                0,
                0,
                0.7071068286895752
            ]
        },
        {
            "mesh" : 0,
            "name" : "Object_7",
            "skin" : 0
        },
        {
            "mesh" : 2,
            "name" : "ShadowPlane_ShadowPlane_0"
        },
        {
            "children" : [
                7
            ],
            "name" : "ShadowPlane",
            "rotation" : [
                -0.7071068286895752,
                0,
                0,
                0.7071067094802856
            ]
        },
        {
            "name" : "ShadowPlane005",
            "rotation" : [
                -0.7071068286895752,
                0,
                0,
                0.7071067094802856
            ],
            "translation" : [
                -0.0030727386474609375,
                0,
                -2.4765005111694336
            ]
        },
        {
            "name" : "TreasureChest",
            "rotation" : [
                -1,
                0,
                0,
                6.123234262925839e-17
            ]
        },
        {
            "name" : "TreasureChest003",
            "rotation" : [
                -1,
                0,
                0,
                6.123234262925839e-17
            ],
            "translation" : [
                -0.01266932487487793,
                0,
                -2.4749975204467773
            ]
        },
        {
            "children" : [
                0,
                6,
                8,
                9,
                10,
                11,
                5
            ],
            "name" : "Object_4"
        },
        {
            "children" : [
                12
            ],
            "name" : "RootNode"
        },
        {
            "children" : [
                13
            ],
            "name" : "Object_2"
        },
        {
            "children" : [
                14
            ],
            "name" : "TreasureChest.FBX",
            "rotation" : [
                0.7071068286895752,
                0,
                0,
                0.7071067094802856
            ]
        },
        {
            "children" : [
                15
            ],
            "name" : "Sketchfab_model",
            "rotation" : [
                -0.7071068286895752,
                0,
                0,
                0.7071067094802856
            ]
        }
    ],
    "animations" : [
        {
            "channels" : [
                {
                    "sampler" : 0,
                    "target" : {
                        "node" : 5,
                        "path" : "translation"
                    }
                },
                {
                    "sampler" : 1,
                    "target" : {
                        "node" : 5,
                        "path" : "rotation"
                    }
                },
                {
                    "sampler" : 2,
                    "target" : {
                        "node" : 5,
                        "path" : "scale"
                    }
                },
                {
                    "sampler" : 3,
                    "target" : {
                        "node" : 4,
                        "path" : "translation"
                    }
                },
                {
                    "sampler" : 4,
                    "target" : {
                        "node" : 4,
                        "path" : "rotation"
                    }
                },
                {
                    "sampler" : 5,
                    "target" : {
                        "node" : 4,
                        "path" : "scale"
                    }
                },
                {
                    "sampler" : 6,
                    "target" : {
                        "node" : 1,
                        "path" : "translation"
                    }
                },
                {
                    "sampler" : 7,
                    "target" : {
                        "node" : 1,
                        "path" : "rotation"
                    }
                },
                {
                    "sampler" : 8,
                    "target" : {
                        "node" : 1,
                        "path" : "scale"
                    }
                },
                {
                    "sampler" : 9,
                    "target" : {
                        "node" : 10,
                        "path" : "rotation"
                    }
                },
                {
                    "sampler" : 10,
                    "target" : {
                        "node" : 11,
                        "path" : "rotation"
                    }
                },
                {
                    "sampler" : 11,
                    "target" : {
                        "node" : 3,
                        "path" : "rotation"
                    }
                }
            ],
            "name" : "Take 001",
            "samplers" : [
                {
                    "input" : 18,
                    "interpolation" : "LINEAR",
                    "output" : 19
                },
                {
                    "input" : 18,
                    "interpolation" : "LINEAR",
                    "output" : 20
                },
                {
                    "input" : 18,
                    "interpolation" : "LINEAR",
                    "output" : 21
                },
                {
                    "input" : 18,
                    "interpolation" : "LINEAR",
                    "output" : 22
                },
                {
                    "input" : 18,
                    "interpolation" : "LINEAR",
                    "output" : 23
                },
                {
                    "input" : 18,
                    "interpolation" : "LINEAR",
                    "output" : 24
                },
                {
                    "input" : 18,
                    "interpolation" : "LINEAR",
                    "output" : 25
                },
                {
                    "input" : 18,
                    "interpolation" : "LINEAR",
                    "output" : 26
                },
                {
                    "input" : 18,
                    "interpolation" : "LINEAR",
                    "output" : 27
                },
                {
                    "input" : 28,
                    "interpolation" : "STEP",
                    "output" : 29
                },
                {
                    "input" : 28,
                    "interpolation" : "STEP",
                    "output" : 30
                },
                {
                    "input" : 28,
                    "interpolation" : "STEP",
                    "output" : 31
                }
            ]
        }
    ],
    "materials" : [
        {
            "doubleSided" : true,
            "extensions" : {
                "KHR_materials_unlit" : {}
            },
            "name" : "TreasureChest",
            "pbrMetallicRoughness" : {
                "baseColorTexture" : {
                    "index" : 0,
                    "texCoord" : 0
                },
                "metallicFactor" : 0,
                "roughnessFactor" : 0.9
            }
        },
        {
            "doubleSided" : true,
            "extensions" : {
                "KHR_materials_unlit" : {}
            },
            "name" : "TreasureCoins",
            "pbrMetallicRoughness" : {
                "baseColorTexture" : {
                    "index" : 1,
                    "texCoord" : 0
                },
                "metallicFactor" : 0,
                "roughnessFactor" : 0.9
            }
        },
        {
            "alphaMode" : "BLEND",
            "doubleSided" : true,
            "extensions" : {
                "KHR_materials_unlit" : {}
            },
            "name" : "ShadowPlane",
            "pbrMetallicRoughness" : {
                "baseColorTexture" : {
                    "index" : 2,
                    "texCoord" : 0
                },
                "metallicFactor" : 0,
                "roughnessFactor" : 0.9
            }
        }
    ],
    "meshes" : [
        {
            "name" : "TreasureChest_TreasureChest_0",
            "primitives" : [
                {
                    "attributes" : {
                        "POSITION" : 0,
                        "NORMAL" : 1,
                        "TEXCOORD_0" : 2,
                        "TEXCOORD_1" : 3,
                        "TEXCOORD_2" : 4,
                        "JOINTS_0" : 5,
                        "WEIGHTS_0" : 6
                    },
                    "indices" : 7,
                    "material" : 0
                }
            ]
        },
        {
            "name" : "TreasureCoins_TreasureCoins_0",
            "primitives" : [
                {
                    "attributes" : {
                        "POSITION" : 9,
                        "NORMAL" : 10,
                        "TEXCOORD_0" : 11,
                        "TEXCOORD_1" : 12
                    },
                    "indices" : 13,
                    "material" : 1
                }
            ]
        },
        {
            "name" : "ShadowPlane_ShadowPlane_0",
            "primitives" : [
                {
                    "attributes" : {
                        "POSITION" : 14,
                        "NORMAL" : 15,
                        "TEXCOORD_0" : 16
                    },
                    "indices" : 17,
                    "material" : 2
                }
            ]
        }
    ],
    "textures" : [
        {
            "sampler" : 0,
            "source" : 0
        },
        {
            "sampler" : 0,
            "source" : 1
        },
        {
            "sampler" : 0,
            "source" : 2
        }
    ],
    "images" : [
        {
            "bufferView" : 8,
            "mimeType" : "image/png",
            "name" : "TreasureChest_baseColor"
        },
        {
            "bufferView" : 15,
            "mimeType" : "image/png",
            "name" : "TreasureCoins_baseColor"
        },
        {
            "bufferView" : 20,
            "mimeType" : "image/png",
            "name" : "ShadowPlane_baseColor"
        }
    ],
    "skins" : [
        {
            "inverseBindMatrices" : 8,
            "joints" : [
                5,
                4,
                1
            ],
            "name" : "Object_4"
        }
    ],
    "accessors" : [
        {
            "bufferView" : 0,
            "componentType" : 5126,
            "count" : 290,
            "max" : [
                0.7008254528045654,
                1.1873409748077393,
                0.5768595337867737
            ],
            "min" : [
                -0.7008257508277893,
                0.004456002730876207,
                -0.5177118182182312
            ],
            "type" : "VEC3"
        },
        {
            "bufferView" : 1,
            "componentType" : 5126,
            "count" : 290,
            "type" : "VEC3"
        },
        {
            "bufferView" : 2,
            "componentType" : 5126,
            "count" : 290,
            "type" : "VEC2"
        },
        {
            "bufferView" : 3,
            "componentType" : 5126,
            "count" : 290,
            "type" : "VEC2"
        },
        {
            "bufferView" : 4,
            "componentType" : 5126,
            "count" : 290,
            "type" : "VEC2"
        },
        {
            "bufferView" : 5,
            "componentType" : 5121,
            "count" : 290,
            "type" : "VEC4"
        },
        {
            "bufferView" : 6,
            "componentType" : 5126,
            "count" : 290,
            "type" : "VEC4"
        },
        {
            "bufferView" : 7,
            "componentType" : 5123,
            "count" : 354,
            "type" : "SCALAR"
        },
        {
            "bufferView" : 9,
            "componentType" : 5126,
            "count" : 3,
            "type" : "MAT4"
        },
        {
            "bufferView" : 10,
            "componentType" : 5126,
            "count" : 8,
            "max" : [
                0.5518577098846436,
                0.37146151065826416,
                0.5313771963119507
            ],
            "min" : [
                -0.5518585443496704,
                -0.4306091070175171,
                0.4437781870365143
            ],
            "type" : "VEC3"
        },
        {
            "bufferView" : 11,
            "componentType" : 5126,
            "count" : 8,
            "type" : "VEC3"
        },
        {
            "bufferView" : 12,
            "componentType" : 5126,
            "count" : 8,
            "type" : "VEC2"
        },
        {
            "bufferView" : 13,
            "componentType" : 5126,
            "count" : 8,
            "type" : "VEC2"
        },
        {
            "bufferView" : 14,
            "componentType" : 5123,
            "count" : 30,
            "type" : "SCALAR"
        },
        {
            "bufferView" : 16,
            "componentType" : 5126,
            "count" : 4,
            "max" : [
                1.03607177734375,
                0.853992223739624,
                0.009999999776482582
            ],
            "min" : [
                -1.03607177734375,
                -0.853992223739624,
                0.009999999776482582
            ],
            "type" : "VEC3"
        },
        {
            "bufferView" : 17,
            "componentType" : 5126,
            "count" : 4,
            "type" : "VEC3"
        },
        {
            "bufferView" : 18,
            "componentType" : 5126,
            "count" : 4,
            "type" : "VEC2"
        },
        {
            "bufferView" : 19,
            "componentType" : 5123,
            "count" : 6,
            "type" : "SCALAR"
        },
        {
            "bufferView" : 21,
            "componentType" : 5126,
            "count" : 57,
            "max" : [
                2.3333333333333335
            ],
            "min" : [
                0
            ],
            "type" : "SCALAR"
        },
        {
            "bufferView" : 22,
            "componentType" : 5126,
            "count" : 57,
            "type" : "VEC3"
        },
        {
            "bufferView" : 23,
            "componentType" : 5126,
            "count" : 57,
            "type" : "VEC4"
        },
        {
            "bufferView" : 24,
            "componentType" : 5126,
            "count" : 57,
            "type" : "VEC3"
        },
        {
            "bufferView" : 25,
            "componentType" : 5126,
            "count" : 57,
            "type" : "VEC3"
        },
        {
            "bufferView" : 26,
            "componentType" : 5126,
            "count" : 57,
            "type" : "VEC4"
        },
        {
            "bufferView" : 27,
            "componentType" : 5126,
            "count" : 57,
            "type" : "VEC3"
        },
        {
            "bufferView" : 28,
            "componentType" : 5126,
            "count" : 57,
            "type" : "VEC3"
        },
        {
            "bufferView" : 29,
            "componentType" : 5126,
            "count" : 57,
            "type" : "VEC4"
        },
        {
            "bufferView" : 30,
            "componentType" : 5126,
            "count" : 57,
            "type" : "VEC3"
        },
        {
            "bufferView" : 31,
            "componentType" : 5126,
            "count" : 1,
            "max" : [
                0
            ],
            "min" : [
                0
            ],
            "type" : "SCALAR"
        },
        {
            "bufferView" : 32,
            "componentType" : 5126,
            "count" : 1,
            "type" : "VEC4"
        },
        {
            "bufferView" : 33,
            "componentType" : 5126,
            "count" : 1,
            "type" : "VEC4"
        },
        {
            "bufferView" : 34,
            "componentType" : 5126,
            "count" : 1,
            "type" : "VEC4"
        }
    ],
    "bufferViews" : [
        {
            "buffer" : 0,
            "byteLength" : 3480,
            "byteOffset" : 0,
            "target" : 34962
        },
        {
            "buffer" : 0,
            "byteLength" : 3480,
            "byteOffset" : 3480,
            "target" : 34962
        },
        {
            "buffer" : 0,
            "byteLength" : 2320,
            "byteOffset" : 6960,
            "target" : 34962
        },
        {
            "buffer" : 0,
            "byteLength" : 2320,
            "byteOffset" : 9280,
            "target" : 34962
        },
        {
            "buffer" : 0,
            "byteLength" : 2320,
            "byteOffset" : 11600,
            "target" : 34962
        },
        {
            "buffer" : 0,
            "byteLength" : 1160,
            "byteOffset" : 13920,
            "target" : 34962
        },
        {
            "buffer" : 0,
            "byteLength" : 4640,
            "byteOffset" : 15080,
            "target" : 34962
        },
        {
            "buffer" : 0,
            "byteLength" : 708,
            "byteOffset" : 19720,
            "target" : 34963
        },
        {
            "buffer" : 0,
            "byteLength" : 482630,
            "byteOffset" : 20428
        },
        {
            "buffer" : 0,
            "byteLength" : 192,
            "byteOffset" : 503060
        },
        {
            "buffer" : 0,
            "byteLength" : 96,
            "byteOffset" : 503252,
            "target" : 34962
        },
        {
            "buffer" : 0,
            "byteLength" : 96,
            "byteOffset" : 503348,
            "target" : 34962
        },
        {
            "buffer" : 0,
            "byteLength" : 64,
            "byteOffset" : 503444,
            "target" : 34962
        },
        {
            "buffer" : 0,
            "byteLength" : 64,
            "byteOffset" : 503508,
            "target" : 34962
        },
        {
            "buffer" : 0,
            "byteLength" : 60,
            "byteOffset" : 503572,
            "target" : 34963
        },
        {
            "buffer" : 0,
            "byteLength" : 1375206,
            "byteOffset" : 503632
        },
        {
            "buffer" : 0,
            "byteLength" : 48,
            "byteOffset" : 1878840,
            "target" : 34962
        },
        {
            "buffer" : 0,
            "byteLength" : 48,
            "byteOffset" : 1878888,
            "target" : 34962
        },
        {
            "buffer" : 0,
            "byteLength" : 32,
            "byteOffset" : 1878936,
            "target" : 34962
        },
        {
            "buffer" : 0,
            "byteLength" : 12,
            "byteOffset" : 1878968,
            "target" : 34963
        },
        {
            "buffer" : 0,
            "byteLength" : 61387,
            "byteOffset" : 1878980
        },
        {
            "buffer" : 0,
            "byteLength" : 228,
            "byteOffset" : 1940368
        },
        {
            "buffer" : 0,
            "byteLength" : 684,
            "byteOffset" : 1940596
        },
        {
            "buffer" : 0,
            "byteLength" : 912,
            "byteOffset" : 1941280
        },
        {
            "buffer" : 0,
            "byteLength" : 684,
            "byteOffset" : 1942192
        },
        {
            "buffer" : 0,
            "byteLength" : 684,
            "byteOffset" : 1942876
        },
        {
            "buffer" : 0,
            "byteLength" : 912,
            "byteOffset" : 1943560
        },
        {
            "buffer" : 0,
            "byteLength" : 684,
            "byteOffset" : 1944472
        },
        {
            "buffer" : 0,
            "byteLength" : 684,
            "byteOffset" : 1945156
        },
        {
            "buffer" : 0,
            "byteLength" : 912,
            "byteOffset" : 1945840
        },
        {
            "buffer" : 0,
            "byteLength" : 684,
            "byteOffset" : 1946752
        },
        {
            "buffer" : 0,
            "byteLength" : 4,
            "byteOffset" : 1947436
        },
        {
            "buffer" : 0,
            "byteLength" : 16,
            "byteOffset" : 1947440
        },
        {
            "buffer" : 0,
            "byteLength" : 16,
            "byteOffset" : 1947456
        },
        {
            "buffer" : 0,
            "byteLength" : 16,
            "byteOffset" : 1947472
        }
    ],
    "samplers" : [
        {
            "magFilter" : 9729,
            "minFilter" : 9987
        }
    ],
    "buffers" : [
        {
            "byteLength" : 1947488,
            "uri" : "data:application/octet-stream;base64,"
        }
    ]
}
